<?xml version="1.0" encoding="UTF-8"?>
<svg id="a" xmlns="http://www.w3.org/2000/svg" viewBox="0 0 55.63 56.05">
  <defs>
    <style>
      .cls-1 {
        fill: #032d60;
      }

      .cls-2 {
        fill: #fff;
      }

      .cls-3 {
        fill: #0d9dda;
      }
    </style>
  </defs>
  <path class="cls-3" d="m47.3,36.9l1.75-.28c.5-.17,2.9-1.21,2.7-5.14-1.55.34-3.62.5-5.22-.43-.84-.49-1.91-1.48-2.17-3.45-.08-.62.17-1.21.61-1.58.16-.15.35-.28.57-.36.65-.26,1.17-.56,1.73-.88.3-.18.62-.36.97-.54-.67-1.24-1.73-2.19-3.52-3.18-.53-.29-.87-.84-.91-1.45-.04-.6.24-1.19.73-1.55.04-.03.07-.05.11-.08-1.53-.58-3.06-1.28-4.16-1.87-1.09-.59-2.55-.26-4.23.12l-.39.09c-.53.12-1.09,0-1.51-.36-.43-.35-.67-.87-.65-1.41.05-2.34-.06-3.65-.18-4.06-.12-.41-.3-.77-.52-1.03-2.85.83-5.79,2.24-6.55,3.19-.43.53-1.13.77-1.8.61s-1.18-.68-1.33-1.35c-.2-.91-1.39-2.28-2.64-3.23-.39.86-.92,1.6-1.42,2.29-.99,1.38-1.84,2.56-1.71,4.61.04.61-.24,1.2-.75,1.56-.5.36-1.15.43-1.72.19-1.12-.47-3.51-.28-5.26.4.22.28.47.6.73.94l.1.12c.3.4.43.91.33,1.4-.09.49-.39.92-.82,1.19l-.3.19c-1.49.92-2.87,1.77-3.87,2.8h0c.12,0,.24,0,.36.04.04,0,.06.02.1.03.08.02.16.04.23.07.04.02.08.04.12.06.06.04.12.06.19.1.04.03.07.06.11.09.05.04.11.08.15.12.04.04.06.07.09.11.04.05.09.1.12.15.03.04.04.09.07.13.04.05.07.11.09.17.02.04.04.1.04.15.02.06.04.12.05.19,0,.05,0,.11.02.16,0,.06.02.12.02.19h0v.02c0,3.98,1.67,4.69,1.74,4.72.72.13,1.16.66,1.3,1.38.14.72-.29,1.41-.91,1.81-1.82,1.16-3.64,1.56-5.12,1.65,1.22,2.45,2.42,2.68,4.39,3.05h0s.09.03.13.04c.07.02.13.04.2.06h0c.09.04.18.09.27.14.02,0,.04.02.05.03.1.06.19.13.27.22.04.04.08.1.12.14s.07.08.1.12c.03.04.04.08.07.12.04.06.07.12.1.18,0,.03.02.05.03.08.03.08.06.16.08.25.03.12.04.22.04.34v.04c0,.11,0,.2-.03.31h0c-.02.12-.05.22-.1.32h0s-.74,1.84-.74,1.84c1.14.43,2.36.32,3.68-.32-.45-1.24-.76-2.59-.89-4.05-.78-6.88,1.72-12.47,7.05-15.68.03-.02.05-.02.07-.04.05-.03.12-.06.18-.08.05-.02.11-.04.16-.05.05-.02.11-.03.17-.04.06,0,.12-.02.18-.03h.34c.05,0,.12.02.17.03.05,0,.11.03.17.04.05.02.11.04.16.05.04.02.07.03.11.04.02,0,.04.02.05.04.04.03.1.05.14.08.05.04.11.07.15.12.02.02.04.03.06.04.55.49,1.93,1.12,3.33,1.6-.2-.96-.22-1.96-.06-2.93.03-.19.1-.36.18-.52.13-.26.33-.49.58-.66.4-.28.91-.36,1.38-.27.53.12,1.13.29,1.76.51,2.89.96,6.54,2.83,8.84,5.28.23-.48.68-.84,1.21-.96.03,0,.04-.02.07-.03.68-.12,1.35.15,1.76.71,2.14,2.96,5.12,9.89,2.81,16.81,1.14-.09,2.31-.36,3.26-.81-.76-1.08-1.13-2.28-1.03-3.4.07-.81.68-1.46,1.48-1.59l.04.02Z"/>
  <path class="cls-2" d="m37.67,30.48c-.69.07-1.36-.25-1.72-.84-1.22-1.99-4.34-3.97-7.26-5.08.19.57.47,1.1.85,1.55.45.53.55,1.28.26,1.91-.29.63-.9,1.04-1.63,1.02-1.85-.02-5.42-1.12-7.62-2.41-4.36,3.18-4.83,8.04-4.42,11.65.59,6.44,5.05,9.95,12.59,9.95,4.71,0,8.56-1.71,10.63-4.68,0-.02.02-.04.03-.06,2.65-4.94,1.23-10.29-.28-13.43-.42.22-.9.36-1.44.42h0Z"/>
  <path class="cls-2" d="m19.97,34.57c-.67-.22-1.02-.94-.8-1.6.66-1.98,3-3.07,5.11-2.37.67.22,1.02.94.8,1.6-.22.67-.94,1.02-1.6.8-.76-.26-1.69.12-1.9.76-.22.67-.94,1.02-1.6.8h0Z"/>
  <ellipse class="cls-2" cx="23.26" cy="36.53" rx="1.47" ry="2.13"/>
  <path class="cls-2" d="m35.74,45.16c-.78.63-2.18.31-3.8-.04-1.09-.25-2.34-.52-3.54-.54-1.23-.03-2.47.3-3.57.6-.89.23-1.66.44-2.29.44-.42,0-.78-.09-1.08-.31-.43-.33-.63-.9-.63-1.75,0-.6.29-1.19.79-1.57,1.53-1.19,3.14-1.97,4.77-2.33.12-.03.26.03.33.14.33.55,1.07.9,1.87.9s1.5-.34,1.84-.85c.07-.11.2-.16.33-.13,2.49.6,4.32,2.01,5,2.6.39.34.6.84.59,1.32,0,.73-.2,1.24-.6,1.56v-.02Z"/>
  <path class="cls-2" d="m32.37,36.53c0-1.17.66-2.13,1.47-2.13s1.47.95,1.47,2.13-.66,2.13-1.47,2.13-1.47-.95-1.47-2.13Z"/>
  <path class="cls-2" d="m37.06,34.09c-.62.33-1.39.1-1.72-.52-.32-.6-1.29-.81-2-.44-.62.33-1.39.1-1.72-.52s-.1-1.39.52-1.72c1.97-1.04,4.45-.36,5.43,1.48.33.62.1,1.39-.52,1.72Z"/>
  <path class="cls-1" d="m54.97,28.79c-.11-.52-.44-.95-.91-1.19-.46-.25-1.01-.28-1.5-.07-1.06.44-2.9.85-3.9.57.14-.08.28-.16.42-.24.68-.4,1.23-.71,1.96-.92.93-.28,1.48-1.24,1.22-2.18-.62-2.26-1.77-3.98-3.72-5.47.4-.42.76-.87,1-1.3.27-.49.28-1.08.05-1.59-.23-.51-.69-.88-1.24-1-1.84-.4-4.49-1.52-6.15-2.42-1.65-.89-3.33-.85-4.93-.59-.04-1.28-.13-2.23-.3-2.85-.45-1.66-1.48-3-2.84-3.65-.37-.18-.8-.22-1.21-.12-1.77.44-4.97,1.51-7.26,2.96-1.42-2.03-3.81-3.85-5.66-4.42-.54-.17-1.13-.06-1.58.28s-.72.87-.71,1.44c0,.95-.47,1.67-1.33,2.86-.85,1.2-1.87,2.61-2.24,4.63-2.89-.21-6.44.77-8.27,2.51-.38.36-.6.87-.56,1.4s.29,1,.72,1.32c.1.07.27.26.6.65-2.29,1.48-4.55,3.29-5.42,6.28-.16.54-.05,1.13.29,1.57.34.44.84.71,1.44.7l1.42-.02c.21,1.81.74,3.13,1.35,4.06-1.7.36-3.01,0-3.08-.03-.64-.2-1.33-.03-1.81.45-.47.48-.63,1.17-.42,1.81,1.7,5.07,3.6,6.7,6.06,7.5l-.55,1.38s-.02.08-.04.12c-.02.06-.04.12-.05.19,0,.05-.02.11-.03.17,0,.06-.02.12-.02.18s0,.12,0,.18c0,.05,0,.12.02.17,0,.05.03.11.04.17.02.05.04.11.05.16s.04.1.07.15c.03.05.05.11.08.15s.07.1.11.14.07.09.11.13c.04.04.1.09.14.13.03.03.05.05.09.08.02,0,.03.02.04.03.03.02.05.04.08.05,1.41,1,2.95,1.52,4.56,1.52,1.29,0,2.61-.35,3.93-1,2.71,3.81,7.42,5.97,13.59,5.97,5.58,0,10.27-2.02,13.09-5.56.31.03.64.04.98.04,2.59,0,5.82-.74,7.82-2.72,0,0,0,0,.02,0,.06-.06.13-.12.2-.18.02-.02.03-.04.04-.05,0-.02.03-.03.04-.04.03-.04.04-.07.06-.1.04-.05.07-.1.1-.15.03-.05.05-.11.07-.15.03-.05.04-.11.06-.16s.03-.11.04-.17c0-.05.03-.12.03-.17s0-.12,0-.17v-.17c0-.05,0-.11-.02-.17,0-.05-.02-.12-.04-.17-.02-.05-.04-.11-.05-.16s-.04-.11-.06-.16c-.03-.05-.05-.11-.09-.15-.03-.04-.06-.1-.1-.14-.04-.05-.08-.1-.12-.14-.03-.03-.04-.06-.07-.09-.02-.02-.04-.03-.04-.04-.02-.02-.03-.04-.04-.04-.29-.24-.52-.48-.71-.7h0c2.45-.67,6.64-3.88,5.04-11.27v-.04Z"/>
  <path class="cls-3" d="m43.59,42.7c2.32-6.92-.67-13.84-2.81-16.81-.4-.55-1.08-.83-1.76-.71-.03,0-.04.02-.07.03-.53.12-.98.47-1.21.96-2.3-2.45-5.94-4.32-8.84-5.28-.62-.2-1.23-.38-1.76-.51-.48-.11-.98,0-1.38.27-.25.17-.44.4-.58.66-.08.16-.15.34-.18.52-.16.98-.13,1.97.06,2.93-1.4-.48-2.77-1.11-3.33-1.6-.02-.02-.04-.03-.06-.04-.05-.04-.1-.08-.15-.12-.04-.03-.1-.06-.14-.08-.02,0-.04-.03-.05-.04-.04-.02-.07-.03-.11-.04-.05-.02-.11-.04-.16-.05-.05-.02-.11-.03-.17-.04-.05,0-.11-.02-.17-.03h-.34c-.06,0-.12.02-.18.03-.05,0-.12.03-.17.04-.05.02-.11.04-.16.05-.06.03-.12.05-.18.08-.03,0-.05.02-.07.04-5.34,3.22-7.83,8.8-7.05,15.68.13,1.46.44,2.8.89,4.05-1.32.64-2.54.75-3.68.32l.74-1.83h0c.04-.12.07-.22.1-.33h0c.02-.11.03-.21.03-.31v-.04c0-.12-.02-.23-.04-.34-.02-.09-.04-.17-.08-.25,0-.03-.02-.05-.03-.08-.03-.06-.06-.12-.1-.18-.03-.04-.04-.08-.07-.12s-.07-.08-.1-.12c-.04-.04-.07-.1-.12-.14-.08-.08-.17-.15-.27-.22-.02,0-.04-.02-.05-.03-.08-.05-.17-.1-.27-.14h0c-.07-.03-.13-.04-.2-.06-.04,0-.08-.03-.13-.04h0c-1.97-.37-3.17-.6-4.39-3.05,1.48-.08,3.3-.48,5.12-1.65.61-.39,1.05-1.09.91-1.81-.14-.72-.59-1.24-1.3-1.38-.07-.03-1.74-.74-1.74-4.72h0v-.02c0-.06-.02-.12-.02-.19,0-.05,0-.11-.02-.16-.02-.06-.04-.12-.05-.19-.02-.05-.03-.1-.04-.15-.03-.06-.06-.12-.09-.17-.03-.04-.04-.09-.07-.13-.04-.05-.08-.1-.12-.15-.04-.04-.06-.08-.09-.11-.04-.04-.1-.09-.15-.12-.04-.03-.07-.06-.11-.09-.05-.04-.12-.07-.19-.1-.04-.02-.08-.04-.12-.06-.07-.03-.15-.05-.23-.07-.04,0-.06-.03-.1-.03-.12-.03-.23-.04-.36-.04h0c1-1.03,2.37-1.88,3.87-2.8l.3-.19c.43-.27.72-.69.82-1.19.09-.49-.03-1-.33-1.4l-.1-.12c-.26-.34-.5-.66-.73-.94,1.75-.68,4.13-.87,5.26-.4.57.24,1.22.17,1.72-.19s.78-.94.75-1.56c-.12-2.04.72-3.23,1.71-4.61.5-.69,1.03-1.44,1.42-2.29,1.25.94,2.44,2.31,2.64,3.23.14.67.67,1.19,1.33,1.35.67.16,1.36-.08,1.8-.61.76-.95,3.71-2.37,6.55-3.19.22.26.41.62.52,1.03.12.42.23,1.73.18,4.06,0,.54.23,1.07.65,1.41.43.35.98.48,1.51.36l.39-.09c1.68-.38,3.14-.71,4.23-.12,1.1.6,2.63,1.3,4.16,1.87-.04.03-.07.05-.11.08-.49.36-.77.94-.73,1.55.04.6.38,1.16.91,1.45,1.79,1,2.85,1.94,3.52,3.18-.35.18-.67.36-.97.54-.55.32-1.08.62-1.73.88-.21.09-.41.21-.57.36-.44.37-.69.96-.61,1.58.26,1.96,1.32,2.95,2.17,3.45,1.6.92,3.67.76,5.22.43.2,3.93-2.21,4.97-2.7,5.14l-1.75.28c-.8.13-1.4.78-1.48,1.59-.11,1.12.27,2.3,1.03,3.4-.95.44-2.13.72-3.26.81l-.04-.02Z"/>
  <path class="cls-2" d="m39.38,43.49s-.02.04-.03.06c-2.07,2.97-5.92,4.68-10.63,4.68-7.53,0-12-3.52-12.59-9.95-.41-3.62.06-8.47,4.42-11.65,2.2,1.28,5.77,2.38,7.62,2.41.73.02,1.33-.39,1.63-1.02.29-.63.2-1.38-.26-1.91-.38-.44-.67-.98-.85-1.55,2.92,1.11,6.04,3.09,7.26,5.08.36.59,1.02.92,1.72.84.53-.06,1.01-.2,1.44-.42,1.5,3.14,2.93,8.48.28,13.43h0Z"/>
  <path class="cls-1" d="m30.75,39.67c-.12-.03-.26.02-.33.13-.35.52-1.07.85-1.84.85s-1.54-.36-1.87-.9c-.07-.12-.2-.17-.33-.14-1.64.36-3.24,1.14-4.77,2.33-.5.38-.79.98-.79,1.57,0,.85.2,1.42.63,1.75.29.22.66.31,1.08.31.64,0,1.41-.2,2.29-.44,1.1-.28,2.34-.61,3.57-.6,1.2.02,2.44.3,3.54.54,1.62.36,3.01.68,3.8.04.4-.32.6-.83.6-1.56.03-.49-.2-.99-.59-1.32-.68-.58-2.51-2-5-2.6v.02Z"/>
  <ellipse class="cls-1" cx="23.26" cy="36.53" rx="1.47" ry="2.13"/>
  <path class="cls-1" d="m35.32,36.53c0-1.17-.66-2.13-1.47-2.13s-1.47.95-1.47,2.13.66,2.13,1.47,2.13,1.47-.95,1.47-2.13Z"/>
  <path class="cls-1" d="m21.57,33.76c.21-.64,1.14-1.01,1.9-.76.67.22,1.39-.14,1.6-.8.22-.67-.14-1.39-.8-1.6-2.11-.7-4.45.38-5.11,2.37-.22.67.14,1.39.8,1.6.67.22,1.39-.14,1.6-.8h0Z"/>
  <path class="cls-1" d="m32.15,30.89c-.62.33-.85,1.09-.52,1.72s1.09.85,1.72.52c.71-.37,1.68-.17,2,.44.33.62,1.09.85,1.72.52s.85-1.09.52-1.72c-.98-1.85-3.47-2.53-5.43-1.48Z"/>
</svg>